<svg id="eC71mvhKQnP1" xmlns="http://www.w3.org/2000/svg" xmlns:xlink="http://www.w3.org/1999/xlink" viewBox="0 0 400 300" shape-rendering="geometricPrecision" text-rendering="geometricPrecision"><rect width="100" height="30" rx="0" ry="0" transform="translate(233.598412 120)" fill="#004638" stroke-width="0"/><rect width="30" height="90" rx="0" ry="0" transform="translate(233.598412 59.99991)" fill="#004638" stroke-width="0"/><rect width="30" height="29.99991" rx="0" ry="0" transform="matrix(1 0 0 1.000003 233.598412 179.99991)" fill="#004638" stroke-width="0"/><rect width="30" height="90" rx="0" ry="0" transform="translate(71.005052 60.000007)" fill="#004638" stroke-width="0"/><ellipse rx="8.643275" ry="4.069768" transform="matrix(1.183428 0 0 1.402137 137.661249 148.845329)" fill="#004638" stroke-width="0"/><rect width="30" height="30" rx="0" ry="0" transform="translate(71.005052 180)" fill="#004638" stroke-width="0"/><rect width="30" height="59.101771" rx="0" ry="0" transform="matrix(.819152 0.573576-.87344 1.247402 174.393711 60.000008)" fill="#004638" stroke-width="0"/><rect width="30" height="59.101771" rx="0" ry="0" transform="matrix(.819152-.573576 0.87344 1.247402 76.479405 77.2073)" fill="#004638" stroke-width="0"/><rect width="336.458472" height="30" rx="0" ry="0" transform="matrix(1.188854 0 0 1 0 149.99991)" fill="#82bf00" stroke-width="0"/><rect width="30" height="141.462725" rx="0" ry="0" transform="matrix(1 0 0 1.06035 174.393398 60)" fill="#004638" stroke-width="0"/><rect width="30" height="93.75" rx="0" ry="0" transform="matrix(1 0 0 1.6 303.598412 60.000008)" fill="#004638" stroke-width="0"/></svg>
